<?xml version="1.0" encoding="UTF-8"?>
<svg id="Capa_1" data-name="Capa 1" xmlns="http://www.w3.org/2000/svg" viewBox="0 0 1593.1 1202.98">
  <defs>
    <style>
      .cls-1 {
        fill: #0b0a0a;
      }

      .cls-1, .cls-2, .cls-3, .cls-4, .cls-5 {
        stroke-width: 0px;
      }

      .cls-2 {
        fill: #050505;
      }

      .cls-3 {
        fill: #30bbf2;
      }

      .cls-6 {
        fill: none;
        stroke: #050505;
        stroke-miterlimit: 10;
      }

      .cls-4 {
        fill: #00b572;
      }

      .cls-5 {
        fill: #8f88bc;
      }
    </style>
  </defs>
  <g>
    <path class="cls-5" d="m43.89,1188.73c-4.48-1.98-7.89-6.75-8.99-11.32-11.48-47.81-22.96-95.63-34.44-143.44-1.1-4.56-.26-9.85,2.55-13.57,5.5-7.92,17.44-8.94,22.88-1.31,1.86,2.36,2.97,4.89,3.58,7.54,11.01,47.67,22.07,95.58,33.13,143.5,2.76,12.04-7.54,23.55-18.72,18.6Z"/>
    <path class="cls-5" d="m140.41,1163.49c-1.45-2.22-2.72-4.74-3.27-7.4-2.25-10.89-4.31-22.07-7.1-33.1-.99-3.58-6.8-23.07-8.04-26.6-1.64-4.2-3.03-8.46-5.79-11.92-.69-.87-2.9-1.67-4.12-1.41-5.97.75-11.9,1.75-17.16,4.66-2.97,1.65-5.53,3.98-7.74,6.73,4.84,22.21,9.74,44.66,14.64,67.12.95,4.35.09,9.59-2.31,13.41-5.29,7.73-16.79,8.54-22.1.63-1.5-2.19-2.76-4.44-3.36-7.09-7.23-31.81-14.51-63.85-21.73-95.66-3.98-17.36,17.94-27.59,26.71-12.28,8-4.78,17.23-7.52,26.47-8.95,4.2-.88,8.5-1.27,12.31-.29,7.62,1.96,15.21,5.22,20.02,11.31,9.41,12.48,13.3,28.34,17.54,43.37,4.14,14.55,7.01,29.09,9.93,43.88.86,4.36-.33,9.64-2.81,13.41-5.42,7.63-16.69,8.16-22.08.19Z"/>
    <path class="cls-5" d="m201.42,1192.5c-.6-1.9-.5-3.93-1.15-6.07-4.5-14.74-8.79-29.52-12.37-44.43-1.44.27-7.68,1.47-8.93,1.46-2.54-.26-5.13-.77-7.14-2.14-2.25-1.32-3.88-3.27-5.32-5.51-5.72-8.69-.38-22.35,9.57-24.26,1.45-.28,3.15-.6,4.61-.88-3.57-17.43-5.8-35.62-4.08-53.55,1.01-9.5,4.37-18.93,10.11-26.77,4.12-5.53,9.93-10.36,16.65-13.06,3.86-1.44,8.39-1.99,12.63-2.73,4.74-.83,9.81-1.2,14.43.27,4.95,1.92,8.54,6.57,10.6,11.24,3.49,8.69-2.26,19.91-11.38,21.49-2.43.67-5.06.12-7.21-.51-.54-.16-1.4-.76-1.94-.92-2.96.52-6.55.4-9.01,2.34-4.06,2.98-5.31,8.73-5.91,13.86-1.48,14.33.94,28.96,3.74,43.02,8.01-1.45,16.02-2.88,24.04-4.27,3.4-.59,7.26,0,10.06,1.78,2.23,1.37,3.86,3.6,5.24,5.88,5.23,8.89-.19,22.33-10.04,24.04-7.46,1.3-14.92,2.62-22.61,4.01.99,4.09,7.26,27.82,8.48,31.86,1.99,6.92,5,14.16,4.05,21.11-.57,3.62-2.36,7.2-4.83,9.67-7.22,7.09-18.93,3-22.28-6.92Z"/>
    <path class="cls-5" d="m354.72,1135.15c-2.64-1.38-4.7-3.84-6.07-6.64-1.06-2.35-1.41-4.79-1.75-7.24-4.07,6.06-9.18,11.53-15.03,15.12-5.65,3.32-12.01,5.01-18.55,5.5-5.31.55-10.93.67-16.28-.5-5.58-1.13-11.36-3.46-16.08-6.71-8.35-5.91-14.7-14.38-20.11-23-4.4-7.03-6.36-15.72-7.01-24.13-.45-7.19-.16-14.5,1.45-21.53,2.6-11.7,8.08-23.12,15.48-32.55,8.06-10.04,19.93-17.39,32.36-21.23,8.26-2.73,17.03-3.74,25.62-4.21.65-2.59,1.56-5.21,3.29-7.45,2.19-2.55,5.75-4.54,8.97-5.23,5.26-.72,11.77,2.15,14.41,6.79.98,1.61,1.7,3.26,2.21,5.19,5.16,14.02,14.13,86.37,16.34,101.28.26,1.96,1.45,11.02,1.46,13.02-.53,11.03-11.17,18.92-20.72,13.51Zm-43.75-25.14c3.63-.55,7.47-1.37,9.85-3.71,4.27-4.63,7.65-10.36,9.28-16.33,2.94-8.91,3.06-18.66,2.48-28.06-.55-7.41-1.06-14.57-1.85-21.95-2.51.1-14.65,1.6-17.09,2.21-6.99,2.27-14.31,5.62-19.55,10.93-8.53,8.56-12.4,22.19-11.28,34.01.88,7.12,6.13,13.54,11.41,18.72,4.12,4.11,11.15,4.78,16.76,4.18Z"/>
    <path class="cls-5" d="m449.76,1114.97c-1.23-2.35-2.25-4.97-2.55-7.68-1.2-11.05-2.19-22.38-3.91-33.63-.64-3.66-4.56-23.61-5.46-27.24-1.22-4.34-2.2-8.71-4.62-12.42-.6-.93-2.72-1.94-3.96-1.8-6,.17-11.97.61-17.46,2.99-3.1,1.36-5.86,3.43-8.32,5.96,2.7,22.57,5.43,45.39,8.17,68.21.53,4.42-.82,9.55-3.56,13.12-5.97,7.19-17.46,6.89-21.97-1.49-1.28-2.33-2.32-4.69-2.66-7.38-4.16-32.35-8.35-64.95-12.51-97.3-2.31-17.67,20.4-25.74,27.64-9.66,8.38-3.99,17.8-5.83,27.1-6.37,4.25-.47,8.55-.45,12.24.89,7.37,2.68,14.59,6.65,18.78,13.17,8.15,13.32,10.51,29.48,13.3,44.85,2.73,14.88,4.2,29.63,5.7,44.63.44,4.43-1.24,9.56-4.05,13.07-6.1,7.07-17.33,6.52-21.91-1.92Z"/>
    <path class="cls-5" d="m530.68,1115.65c-6.29.28-13.25-1.6-18.48-5.6-7.6-6.02-13.14-15.68-15.28-25.41-1.73-8.03-5.19-50.39-5.69-58.53-4.21.39-8.6,1.55-12.74.21-3.34-.92-6.81-3.06-8.37-6.13-4.36-8.5-2.69-19.36,5.99-23.68,3.84-2.11,8.41-1.8,12.89-2.46-.64-6.89-1.03-13.8-1.67-20.69-.98-13.07,12.95-23.03,23.33-14.98,3.79,2.65,5.97,7.43,6.34,11.86.33,6.92.91,13.81,1.23,20.73,2-.17,11.5-1.2,13.53-1.11,2.54.29,4.9,1.35,7.03,2.91,9.91,7.67,6.69,25.24-5.25,28.67-1.7.63-11.39,1.18-13.38,1.35.31,6.67,3.31,45.1,4.11,51.73.45,2.44,1.37,4.6,2.53,6.73.59,1.19,1.69,2.59,2.91,2.49,3.19-.02,6.11-.25,9.01-.73.49-.04,1.2-.34,1.18-.59,2.32-7.87.66-16.41,2.23-24.72.71-3.53,2.92-6.92,5.72-9.12,9.37-7.17,21.8.13,22.6,11.72-.06,2.73-.55,16.64-.85,19.38-.71,7.23-2.62,14.8-6.29,21.26-2.83,4.67-7.44,7.98-11.84,10.8-6.03,3.69-13.78,3.81-20.82,3.9Z"/>
    <path class="cls-5" d="m588.46,962.29c-2.79-.07-5.33-.16-8.11.02-5.83-.12-11.59-6.41-12.74-12.02-1.44-6.09.67-12.43,5.26-16.45,2.41-2.14,5.65-3.59,8.72-3.54,3.58.02,7.14-.45,10.52.58,4.17,1.23,7.44,4.75,9.2,8.61,2.6,5.29.85,14.55-3.49,18.28-2.65,2.39-6.06,4.58-9.36,4.53Zm-6.07,139.56c-1.13-2.4-2.05-5.06-2.23-7.77-2.51-36.98-5.03-74.21-7.54-111.19-.32-4.68,1.37-9.51,4.69-12.94,6.63-6.88,18.37-5.88,22.41,2.55,1.41,2.39,2.07,5.07,2.23,7.79,2.2,37.25,4.39,74.25,6.59,111.49.26,4.44-1.39,9.49-4.34,12.88-6.38,6.82-17.82,5.83-21.81-2.81Z"/>
    <path class="cls-5" d="m709.18,1105.66c-2.47-1.66-4.24-4.33-5.3-7.26-.8-2.45-.88-4.92-.95-7.39-4.69,5.58-10.35,10.46-16.54,13.4-5.96,2.68-12.45,3.68-18.99,3.45-5.33-.03-10.91-.52-16.08-2.26-5.41-1.73-10.89-4.68-15.21-8.41-7.64-6.79-13.01-15.89-17.44-25.05-3.6-7.47-4.61-16.32-4.34-24.75.33-7.2,1.41-14.43,3.77-21.25,3.84-11.35,10.51-22.1,18.86-30.68,9.07-9.11,21.64-15.12,34.38-17.59,8.48-1.81,17.3-1.87,25.86-1.4.93-2.5,2.11-5.01,4.07-7.05,2.45-2.3,6.19-3.89,9.46-4.22,5.3-.14,11.44,3.42,13.56,8.31.79,1.71,1.34,3.43,1.63,5.4,3.6,14.5,4.66,87.39,5.24,102.46.04,1.98.24,11.12.04,13.1-1.72,10.91-13.13,17.6-22.01,11.18Zm-40.67-29.74c3.66-.15,7.55-.55,10.16-2.62,4.73-4.13,8.71-9.47,10.97-15.23,3.89-8.54,5.06-18.22,5.5-27.62.26-7.42.52-14.6.54-22.02-2.5-.17-14.71,0-17.19.34-7.17,1.5-14.8,4.03-20.57,8.74-9.38,7.58-14.69,20.7-14.86,32.59.1,7.17,4.62,14.13,9.28,19.85,3.64,4.53,10.54,5.96,16.16,5.98Z"/>
    <path class="cls-5" d="m853.36,1101.01c-9.14-3.85-17.31-10.85-23.08-19.06-9.87-13.67-15.71-30.49-17.88-47.05-3.39-24.22-.93-50.92,10.05-72.85,4.59-9.36,10.74-18.22,18.95-24.8,6.16-4.87,13.34-8.48,21.28-10.07,7.68-1.6,16.61-.92,24.18,2.23,8.83,3.68,16.8,10.33,22.65,17.93,5.12,6.59,8.9,14.63,11.91,22.4,2.57,6.02,4.81,13.28,2.34,19.12-4.7,11.94-20.93,13.39-26.63,2.12-.95-1.76-1.39-3.99-2.09-5.99-5.53-16.71-18.83-34.61-33.93-24.97-4.6,2.89-7.94,7.29-10.78,11.94-4.64,7.6-7.25,16.47-8.84,25.09-2.68,16.03-1.84,33.09,3.39,48.23,4.06,11.91,13.57,28.84,26.02,27.86,3.67-.42,7.14-2.56,9.89-4.97,4.75-4.09,7.83-9.7,10.69-15.3,3.89-7.81,14.34-10.23,21.06-4.81,5.28,4.13,7.2,12.36,4.3,18.19-5,9.97-11.42,19.89-20.12,26.81-5.97,4.77-13.09,8.54-20.38,10.11-7.54,1.56-15.74.66-22.96-2.17Z"/>
    <path class="cls-5" d="m925.04,1042.32c.42-11.6,4.08-23.59,10.45-33.48,6.64-10.37,16.77-18.86,28.29-23.26,15.08-5.48,32.62-2.53,45.31,7.41,7.18,5.88,12.73,12.93,16.42,21.35,11.72,26.56,4.55,58.72-16.38,77.93-6.73,6.26-15.75,10.91-24.83,12.64-34.39,6.25-60.67-26.78-59.27-62.59Zm53.3,28.86c6.13-.17,12.03-4.78,15.29-10.04,5.69-9.08,6.69-21.39,2.29-31.05-1.98-4.32-5.23-8.47-9.58-10.93-3.38-1.92-7.84-2.4-11.62-1.6-4.55,1.25-8.67,4.27-11.34,8.1-9.01,11.95-8.09,31.03,2.94,40.96,3.04,3.12,7.84,4.85,12.03,4.58Z"/>
    <path class="cls-5" d="m1034.25,1102.86c-.79-2.53-1.33-5.3-1.14-8.01,2.16-30.81,4.33-61.62,6.49-92.44.65-9.37,9.27-17.19,18.69-14.99,4.46,1.08,8.2,4.84,9.62,9.17,8.69-5.02,19.03-7.89,29.08-7.27,10.03.87,19.37,6.45,24.37,14.86,4.79,7.9,6.04,18.2,4.2,26.96-.46,2.19-.67,4.4-1.61,6.3-4.14,9.28-15.61,12.66-22.97,6.06-3.43-3.28-5.2-8.65-4.77-13.57.17-1.97,1.55-6.31.17-7.67-1.86-1.65-7.16-1.12-9.72-.34-8.46,2.51-15.73,9.12-20.53,16.42-1.54,19.46-3.05,38.67-4.57,57.89-.37,4.68-2.7,9.45-6.07,12.17-7.26,5.88-18.45,3.32-21.24-5.54Z"/>
    <path class="cls-5" d="m1125.3,1044.04c2.16-14.68,9.07-29.17,19.23-39.81,12.36-12.66,31.35-21.34,49.36-20.75,7.37.1,14.63,1.21,21.76,3.33.45-3.68,2.36-23.61,3.32-27.23.92-3.37,3.12-6.59,6.21-8.7,11-7.62,24.62,3.12,22.9,16.11-6.37,48.76-12.74,97.52-19.11,146.28-1.46,11.02-12.62,18.03-21.59,11.69-47.27,8.99-88.69-32.16-82.07-80.92Zm77.32,49.71c3.05-25.02,6.1-50.04,9.14-75.06-7.44-3.15-16.13-4.42-24.1-3.1-7.72,1.35-15.39,4.73-21.22,9.82-31.11,27.81-4,76.9,36.17,68.34Z"/>
    <path class="cls-5" d="m1242.69,1069.21c1.53-11.51,6.32-23.09,13.62-32.33,7.61-9.69,18.53-17.17,30.44-20.44,15.57-4.01,32.78.6,44.51,11.72,6.6,6.55,11.47,14.1,14.35,22.83,9.16,27.56-1.06,58.89-23.78,76.01-7.32,5.59-16.76,9.35-25.98,10.2-34.92,2.92-57.98-32.47-53.16-67.98Zm50.42,33.83c6.14.42,12.46-3.61,16.21-8.53,6.54-8.49,8.72-20.65,5.24-30.69-1.57-4.49-4.41-8.93-8.52-11.8-3.19-2.23-7.59-3.14-11.44-2.71-4.65.81-9.06,3.42-12.09,6.97-10.13,11.03-11.03,30.11-.97,41.06,2.73,3.39,7.36,5.58,11.56,5.71Z"/>
    <path class="cls-5" d="m1385.83,1155.7c-7.17-1.3-13.88-3.74-20.49-6.9-.44-.33-1,.08-1.52.24-1.48,0-3,.23-4.48.23-4.87-.34-10.15-5.5-11.1-10.16-.55-2.6-.82-5.4-.41-7.84,8.19-48.74,16.33-97.23,24.48-145.72.78-4.63,3.61-9.17,7.64-11.49,8.14-5.14,19.5-1.41,21.51,7.73.83,2.66.86,5.42.39,8.1-1.42,8.03-2.84,16.06-4.26,24.09,9.24.13,18.52,1.56,26.93,4.88,40.27,16.04,55.58,63.27,34.9,100.12-5,8.57-11.38,16.61-19.01,22.41-9.7,7.41-21.44,12.93-33.11,14.51-7.1.93-14.54,1.06-21.47-.19Zm18.49-30.53c7.45-1.14,14.98-3.99,20.94-8.89,31.05-25.92,7.86-75.19-33.27-70.69-4.39,24.82-8.78,49.64-13.17,74.46,7.7,4.37,17.05,6.32,25.51,5.12Z"/>
    <path class="cls-5" d="m1544.42,1189.5c-1.98-2.24-3.03-5.27-3.31-8.38-.16-2.57.4-4.98.95-7.39-5.99,4.2-12.74,7.47-19.51,8.73-6.48,1.07-13.05.37-19.36-1.52-5.17-1.39-10.48-3.29-15.06-6.3-4.82-3.05-9.4-7.3-12.65-12.02-5.69-8.51-8.6-18.69-10.57-28.68-1.6-8.14-.32-16.96,2.08-25.05,2.16-6.87,5.04-13.6,9.07-19.58,6.63-9.99,15.84-18.69,26.14-24.85,11.14-6.49,24.89-9.09,37.91-8.22,8.71.42,17.3,2.61,25.52,5.26,1.54-2.18,3.33-4.31,5.75-5.77,2.97-1.59,7.02-2.17,10.29-1.66,5.19,1.22,10.27,6.23,11.09,11.51.34,1.86.43,3.66.21,5.64-.19,14.95-17.72,85.71-20.99,100.42-.46,1.92-2.6,10.81-3.3,12.68-4.45,10.11-17.26,13.66-24.28,5.18Zm-31.99-39.17c3.6.79,7.49,1.4,10.56.06,5.66-2.79,10.88-6.93,14.55-11.92,5.95-7.26,9.56-16.32,12.38-25.31,2.14-7.11,4.23-13.99,6.13-21.16-2.39-.81-14.31-3.76-16.81-4.06-7.36-.38-15.43.12-22.23,3.19-11.05,4.93-19.56,16.27-22.74,27.72-1.73,6.96.89,14.84,3.97,21.57,2.38,5.31,8.73,8.46,14.19,9.92Z"/>
  </g>
  <g>
    <path class="cls-3" d="m669.6,526.41c0,86.01-34.61,163.62-90.1,218.46-51.65,51.03-121.46,82.35-198.25,82.35-159.24,0-288.31-134.69-288.31-300.81,0-17.78,1.48-35.18,4.33-52.11,5.03-30.16,14.38-58.74,27.36-85.13.3-.62.63-1.27.96-1.89,6.47-12.96,13.83-25.34,21.96-37.07.15-.19.26-.39.37-.54,34.5-49.49,83.11-87.59,139.65-107.84,2.29-.81,4.62-1.62,6.95-2.35,1.07-.39,2.18-.73,3.29-1.08,0-.04.04-.04.07,0,18.12-5.75,37.01-9.64,56.46-11.49.48-.08.96-.12,1.44-.12,8.39-.81,16.9-1.2,25.47-1.2,9.87,0,19.63.5,29.25,1.5,65.18,6.87,123.97,36.37,169,80.84,55.5,54.85,90.1,132.45,90.1,218.46Z"/>
    <g>
      <path class="cls-4" d="m1390.46,10.3v825.45c0,5.67-4.4,10.26-9.84,10.26h-791.28c-5.44,0-9.84-4.59-9.84-10.26v-90.87c26.69-26.38,48.55-58.02,64.04-93.33-1.12,1.08-2.27,2.13-3.47,3.11-1.34,1.09-2.77,2.12-3.85,3.47-1.17,1.45-1.87,3.25-2.04,5.1-.5-.57-.72-1.41-1.21-2.01-.45-.55-1.12-.91-1.56-1.45.71-2.39,2.42-4.47,3.01-6.86,1.36-1.25,2.94-2.29,4.57-3.18,2.19-1.2,4.5-2.17,6.74-3.29,15.36-36.76,23.87-77.36,23.87-120.03,0-86.01-34.6-163.61-90.1-218.46V10.3c0-5.67,4.4-10.3,9.84-10.3h791.28c5.44,0,9.84,4.63,9.84,10.3Z"/>
      <path class="cls-4" d="m632.71,664.98l-.51.12h2.66c1.34,2.03,1.87,2.53,1.59,1.5-.07-.26-.12-.53-.15-.8-.1-.55-.16-.98-.22-1.54-.1-1.07-.17-2.13.16-3.16l-8.36,2.21c.26.27,1.09.93,1.15,1,.09.11.59,1.09.84,1.45l-.68-2.52c-.08,1.34.04,2.67.29,3.98.07.37.17.73.26,1.1.11.54.13.63.06.28-.14-.52-.05-1.04.27-1.56l1.79-1.79-.33.25c-2.16,1.61-3.26,4.33-1.79,6.84,1.25,2.13,4.66,3.41,6.84,1.79,1.85-1.38,3.01-2.95,3.15-5.28.09-1.52-.46-2.82-.6-4.28-.03-.35.09-.91.06-1.32-.07-1.38-.61-2.38-1.29-3.52-.83-1.38-1.84-2.34-2.94-3.48-2.71-2.79-7.24-1.3-8.36,2.21-1.04,3.28-.52,6.98.11,10.29.79,4.18,4.43,6.92,8.68,5.89,6.25-1.51,3.6-11.16-2.66-9.64Z"/>
      <path class="cls-4" d="m644.02,641.12c-3.68.61-7.02,2.37-10.14,4.35s-5.72,4.34-5.76,8.32,5.69,6.96,8.54,3.54l1.47-1.77c-2.79-1.62-5.57-3.24-8.36-4.86l-.17.89,1.29-2.21c-3.28,3.17-6.8,8.41-3.79,12.92,3.55,5.33,12.22.33,8.63-5.05l.03-.11v2.66c.45-2.59,3.13-3.73,3.65-6.44.42-2.2-.28-4.47-2.3-5.65-1.79-1.05-4.66-.9-6.06.78l-1.47,1.77,8.54,3.54c-.01,1.18-.63,1.22.81.32.84-.53,1.68-1.05,2.55-1.53,1.68-.93,3.31-1.5,5.21-1.82,2.67-.44,4.15-3.74,3.49-6.15-.78-2.83-3.48-3.93-6.15-3.49h0Z"/>
      <path class="cls-4" d="m630.64,666.77c3.05,3.12,7.92,2.35,10.65-.77,2.52-2.88,3.42-6.99,2.25-10.65-.82-2.57-3.46-4.24-6.15-3.49-6.27,1.74-8.28,8.42-6.56,14.14,1.28,4.27,6.77,4.75,9.14,1.19,2.06-3.09,1.82-6.98.22-10.17s-6.94-3.2-8.63,0-1.84,6.86-.18,10.18c1.21,2.41,4.62,3.09,6.84,1.79,2.46-1.44,3.01-4.42,1.79-6.84.23.45.57,1.3.17.34l-.12-.46c.06.46.08.5.07.13-.13.46.18-.89,0-.1-.13.56.5-.84.06,0h-8.63c-.17-.47-.17-.43,0,.14-.07-.54-.1-.51-.08.09.11-.51.39-.95-.14-.16,3.05.4,6.09.8,9.14,1.19-.07-.24-.4-1.92-.31-.93,0-.09-.21-1.64-.05-.68.19-.62.18-.65-.04-.11.3-.49.29-.51-.03-.08.42-.4.41-.42,0-.06-.55.17-.54.18.01.02l-6.15-3.49c.11.3.19.6.25.91-.08-.55-.11-.52-.09.08l.06-.39c-.06.31-.15.61-.26.91.16-.4.15-.45-.01-.14-.19.29-.16.27.07-.08.42-.33.92-.48,1.5-.45.86.01,1.63.3,2.31.87-1.89-1.93-5.18-1.89-7.07,0s-1.89,5.13,0,7.07h0Z"/>
      <path class="cls-4" d="m648.19,650.63c6.43,0,6.45-10,0-10s-6.45,10,0,10h0Z"/>
      <path class="cls-4" d="m640.02,656.73c1.26,1.99,2.79,3.84,4.61,5.34,1.05.87,2.12,1.46,3.54,1.46,1.23,0,2.69-.54,3.54-1.46,1.69-1.84,2.16-5.3,0-7.07-.71-.58-1.38-1.21-2-1.89-.13-.14-.26-.29-.38-.44-.51-.61-.13-.03.15.22-.34-.3-.58-.82-.82-1.2-1.4-2.2-4.51-3.3-6.84-1.79-2.21,1.42-3.3,4.48-1.79,6.84h0Z"/>
      <path class="cls-4" d="m652.69,628.91c.17.12-3.08-2.04-2.2-.73-.53-.79-.42-2.38-.49-3.29-.25-3.39.71-4.72,3.66-6.2,5.07-2.55,8.57-5.2,10.38-10.81,1.14-3.53-2.59-7.34-6.15-6.15s-6.63,4.5-9.89,6.63l7.34,5.65c-.07.21,1.63-.78,2.06-.98l-6.06-7.85c-2.56,2.74-5.18,5.41-7.87,8.02,2.79,1.62,5.57,3.24,8.36,4.86.29-1.98,1.09-2.76,2.46-4.15,3.89-3.92-1.23-11.11-6.06-7.85-8.25,5.55-19.9,19.08-10.75,28.65l3.54-8.54.94.04c-4.7-3.6-9.66,3.85-6.06,7.85s9.85,3.93,14.92,4.54v-10c-.27.01-2.92.12-2.9.13l2.48,4.32-.31.75c.54-.71,1.08-1.43,1.62-2.14.9-1.19,1.8-2.38,2.7-3.57,1.8-2.38,3.6-4.77,5.4-7.15l-9.14-3.85c-.53,2.03-1.07,4.06-1.6,6.09-1.29,4.94,4.73,8.22,8.36,4.86,2.39-2.21,3.21-4.54,3.62-7.7.84-6.36-9.17-6.3-10,0l-.69.63c2.79,1.62,5.57,3.24,8.36,4.86.53-2.03,1.07-4.06,1.6-6.09,1.53-5.84-5.88-8.17-9.14-3.85-2.16,2.86-4.32,5.72-6.48,8.58-1.56,2.06-3.98,4.37-4.33,7.04-.82,6.3,5.65,7.33,10.45,7.09,6.58-.32,6.27-9.25,0-10-2.07-.25-6.39.01-7.85-1.61l-6.06,7.85c1.3.99,2.53,1.13,4.1,1.33,4.55.57,6.25-5.7,3.54-8.54-3.02-3.16,6.47-11.43,8.72-12.95l-6.06-7.85c-2.46,2.48-4.52,5.02-5.04,8.56-.68,4.68,4.46,8.64,8.36,4.86,2.69-2.61,5.31-5.28,7.87-8.02,4.03-4.33-1-10.17-6.06-7.85-3.29,1.51-5.45,3.52-6.66,6.96-1.43,4.08,3.79,7.97,7.34,5.65,1.51-.98,2.97-1.98,4.41-3.06.94-.71,2.08-2.22,3.09-2.55l-6.15-6.15c-1.29,4-6.26,4.6-9.28,6.95-2.76,2.15-4.39,5-4.93,8.45-.5,3.22-.27,7.07.67,10.21,1.08,3.65,3.91,4.76,6.79,6.7,5.36,3.6,10.37-5.06,5.05-8.63h0Z"/>
    </g>
    <path class="cls-2" d="m1015.87,434.67c-11.47,28.28-34.06,49.76-59.04,66.4-12.66,8.43-26.01,15.76-39.56,22.66-16,8.15-32.29,15.72-48.83,22.69-32.49,13.69-65.95,25.07-100.05,34.02-17.07,4.48-34.3,8.35-51.65,11.59-8.61,1.61-17.24,3.06-25.9,4.36s-17.19,2.1-25.7,3.64c-7.57,1.37-15.35,3.66-21.3,8.75-5.18,4.43-8.83,10.69-9.83,17.46-.66,4.43.39,7.98,4.4,10.31,3.23,1.88,7.11,2.6,10.8,2.92.79.07,1.58.12,2.37.12l-.1-.74c-4.53.9-9.06,2.33-13.26,4.23-2.95,1.34-5.9,3.01-8.02,5.51-2.4,2.84-3.94,6.35-4.57,10-.67,3.86-.38,7.93,1.02,11.61.4,1.06.77,2.05,1.66,2.77.49.4.98.79,1.48,1.17,2.19,1.63,4.64,2.54,7.28,3.17,7.83,1.87,15.95,2.72,23.9,3.89l-.09-.69c-5.73,3-11.93,6.27-15.47,11.93-2.9,4.63-4.03,11.11-.92,15.92s8.91,6.21,14.2,6.64c7.67.62,15.48-.04,23.07-1.18,16.03-2.42,31.57-7.39,47.11-11.89,15.02-4.35,30.03-8.72,45-13.2,29.97-8.97,59.82-18.38,89.28-28.91,29.21-10.45,58.05-22.02,86.1-35.31,14.15-6.71,28.09-13.85,41.76-21.5,11.52-6.44,23.8-13.1,31.98-23.77,1.91-2.48,3.52-5.16,4.83-8,.2-.44-.44-.82-.65-.38-5.6,12.09-16.69,19.96-27.84,26.53-12.68,7.47-25.73,14.34-38.91,20.87-26.99,13.37-54.79,25.04-83.01,35.56-28.17,10.5-56.75,19.85-85.48,28.66-28.67,8.79-57.44,17.48-86.38,25.33-15.05,4.08-30.87,7.63-46.56,6.46-6.4-.48-13.79-2.77-15.31-9.9s3.28-14.14,9.04-18.23c2.7-1.91,5.63-3.45,8.56-4.98.27-.14.23-.64-.09-.69-6.99-1.03-14.02-1.94-20.96-3.27-2.9-.56-5.93-1.15-8.5-2.67-.96-.57-1.9-1.24-2.73-1.97-2.49-2.21-2.97-6.97-2.95-10.12.02-4.07,1.16-8.16,3.39-11.57,1.94-2.98,4.71-4.96,7.85-6.53,4.5-2.24,9.48-3.8,14.4-4.79.42-.08.32-.74-.1-.74-5.96-.01-16.78-1.7-17.09-9.35s3.96-14.84,9.22-19.61c6.11-5.55,14.37-7.87,22.33-9.26,8.52-1.49,17.17-2.34,25.72-3.63s16.81-2.69,25.18-4.25c16.99-3.17,33.86-6.95,50.59-11.31,33.64-8.77,66.66-19.92,98.74-33.3,15.84-6.61,31.44-13.76,46.79-21.44,13.56-6.79,26.96-13.93,39.75-22.11,23.96-15.32,46.36-34.69,59.52-60.36,1.57-3.06,2.98-6.18,4.27-9.36.18-.45-.54-.64-.72-.2h0Z"/>
    <path class="cls-2" d="m352.75,449.61c6.53,8.03,13.52,15.82,21.79,22.12s18.04,10.63,28.61,12.18c5.71.83,11.48,1.06,17.24,1.19s11.99.17,17.96-.35c11.54-1,22.39-4.81,32.71-9.96,5.02-2.5,9.8-5.62,13.35-10.03,3.36-4.17,5.87-9.38,10.73-12.04.42-.23.05-.88-.38-.65-3.93,2.15-6.38,5.95-8.91,9.5-3.05,4.29-6.66,7.7-11.2,10.4s-9.67,4.9-14.67,6.87c-5.42,2.13-10.98,3.75-16.75,4.59s-12.02,1.03-18.05.98-11.57-.17-17.33-.71-11.35-1.56-16.72-3.53c-4.7-1.72-9.13-4.13-13.25-6.97-9.51-6.55-17.35-15.23-24.59-24.14-.3-.37-.83.16-.53.53h0Z"/>
    <path class="cls-2" d="m119.58,607.59c8.76,12.72,18.04,25.09,27.83,37.04s20.14,23.6,30.93,34.73c10.75,11.1,21.97,21.75,33.62,31.9,5.84,5.09,11.78,10.05,17.83,14.88,2.9,2.32,5.83,4.61,8.79,6.87s6.09,4.67,9.44,6.53c5.78,3.2,13.78,5.11,19.31.35s5.69-12.52,3.86-18.86c-.54-1.87-1.25-3.68-2.05-5.45l-.59.45c3.26,3.45,6.9,6.82,11.43,8.47,4.07,1.48,8.89,1.41,12.5-1.2,6.51-4.73,6.42-14.36,3.45-21.04-2.25-5.06-5.93-9.29-9.54-13.42l-.36.63c6.83,1.01,14.28,2.03,20.8-.91,5.88-2.65,9.73-8.45,10.94-14.67.61-3.14.65-6.58-.4-9.64s-3.39-5.21-6.31-6.61c-3.39-1.62-7.06-2.71-10.61-3.91-3.81-1.28-7.63-2.51-11.44-3.76-7.72-2.53-15.44-5.16-22.84-8.53-6.68-3.04-13.02-6.73-18.91-11.1-11.39-8.43-21.02-19.05-29.38-30.44-8.52-11.6-15.81-24.05-22.67-36.69-.83-1.54-1.66-3.08-2.48-4.62-.23-.43-.87-.05-.65.38,6.52,12.22,13.34,24.3,21.19,35.72,7.66,11.14,16.32,21.71,26.54,30.6,4.94,4.3,10.23,8.2,15.86,11.53,6.49,3.85,13.42,6.87,20.49,9.5s14.62,4.97,21.95,7.4c3.65,1.21,7.32,2.4,10.89,3.82s6.61,3.47,7.78,7.27c2.01,6.47-.31,14.36-4.88,19.21-5.18,5.49-12.79,6.13-19.9,5.45-1.92-.19-3.84-.46-5.75-.74-.37-.05-.63.33-.36.63,5.43,6.21,11.47,13.28,11.29,22.03-.07,3.65-1.19,7.48-3.79,10.14-3.08,3.15-7.7,3.77-11.82,2.67-5.02-1.35-8.99-5.03-12.46-8.71-.31-.33-.75.09-.59.45,3.05,6.81,4.91,15.63-.28,21.95s-14.36,4.17-20.57.56c-3.19-1.86-6.12-4.13-9.04-6.37s-6-4.66-8.97-7.03c-5.7-4.57-11.31-9.26-16.83-14.05-11.17-9.71-21.93-19.88-32.28-30.47-10.38-10.62-20.33-21.66-29.82-33.08-9.6-11.54-18.73-23.48-27.36-35.76-1.05-1.5-2.1-3-3.13-4.51-.27-.39-.92-.02-.65.38h0Z"/>
    <ellipse class="cls-1" cx="471.37" cy="357.22" rx="18.02" ry="18.8"/>
    <ellipse class="cls-1" cx="381.27" cy="376.02" rx="18.02" ry="18.8"/>
    <ellipse class="cls-1" cx="705.65" cy="150.42" rx="24.03" ry="37.6"/>
    <ellipse class="cls-1" cx="849.82" cy="169.22" rx="24.03" ry="37.6"/>
    <path class="cls-6" d="m660.6,291.42s74.52,169.2,217.47,0"/>
  </g>
  <g>
    <path class="cls-5" d="m971.05,950.8c11.17-9.96,22.35-19.93,33.52-29.89"/>
    <path class="cls-5" d="m980.6,960.34c11.17-9.96,22.35-19.93,33.52-29.89,2.49-2.22,3.95-6.28,3.95-9.55s-1.47-7.27-3.95-9.55-5.95-4.12-9.55-3.95-6.77,1.48-9.55,3.95c-11.17,9.96-22.35,19.93-33.52,29.89-2.49,2.22-3.95,6.28-3.95,9.55s1.47,7.27,3.95,9.55,5.95,4.12,9.55,3.95,6.77-1.48,9.55-3.95h0Z"/>
  </g>
</svg>